<svg xmlns="http://www.w3.org/2000/svg" viewBox="0 0 64 64" width="64" height="64">
  <defs>
    <radialGradient id="bg" cx="40%" cy="35%" r="70%">
      <stop offset="0%" stop-color="#110d1a" stop-opacity="1"/>
      <stop offset="100%" stop-color="#080e09" stop-opacity="1"/>
    </radialGradient>
    <filter id="soft">
      <feGaussianBlur stdDeviation="0.8" result="b"/>
      <feMerge><feMergeNode in="b"/><feMergeNode in="SourceGraphic"/></feMerge>
    </filter>
    <filter id="softer">
      <feGaussianBlur stdDeviation="1.4" result="b"/>
      <feMerge><feMergeNode in="b"/><feMergeNode in="SourceGraphic"/></feMerge>
    </filter>
  </defs>
  <!-- bg -->
  <rect width="64" height="64" rx="10" fill="url(#bg)"/>
  <!-- texture organica leggera -->
  <ellipse cx="18" cy="16" rx="22" ry="18" fill="#ce93d8" opacity="0.04"/>
  <ellipse cx="48" cy="50" rx="20" ry="16" fill="#ce93d8" opacity="0.04"/>
    <!-- bocca/onda sonora organica -->
  <path d="M22 28 Q24 20 32 18 Q40 20 42 28 Q44 36 40 42 Q36 48 32 48 Q28 48 24 42 Q20 36 22 28Z"
        fill="none" stroke="#ce93d8" stroke-width="1.8"/>
  <path d="M26 34 Q32 38 38 34" fill="none" stroke="#e1b5e8" stroke-width="1.4" stroke-linecap="round"/>
  <path d="M14 28 Q10 32 14 36" fill="none" stroke="#ce93d8" stroke-width="1.3" stroke-linecap="round" opacity="0.6"/>
  <path d="M10 24 Q6 32 10 40" fill="none" stroke="#ce93d8" stroke-width="1" stroke-linecap="round" opacity="0.4"/>
  <path d="M50 28 Q54 32 50 36" fill="none" stroke="#ce93d8" stroke-width="1.3" stroke-linecap="round" opacity="0.6"/>
  <path d="M54 24 Q58 32 54 40" fill="none" stroke="#ce93d8" stroke-width="1" stroke-linecap="round" opacity="0.4"/>
</svg>
