<svg xmlns="http://www.w3.org/2000/svg" viewBox="0 0 64 64" width="64" height="64">
  <defs>
    <radialGradient id="bg" cx="40%" cy="35%" r="70%">
      <stop offset="0%" stop-color="#161408" stop-opacity="1"/>
      <stop offset="100%" stop-color="#080e09" stop-opacity="1"/>
    </radialGradient>
    <filter id="soft">
      <feGaussianBlur stdDeviation="0.8" result="b"/>
      <feMerge><feMergeNode in="b"/><feMergeNode in="SourceGraphic"/></feMerge>
    </filter>
    <filter id="softer">
      <feGaussianBlur stdDeviation="1.4" result="b"/>
      <feMerge><feMergeNode in="b"/><feMergeNode in="SourceGraphic"/></feMerge>
    </filter>
  </defs>
  <!-- bg -->
  <rect width="64" height="64" rx="10" fill="url(#bg)"/>
  <!-- texture organica leggera -->
  <ellipse cx="18" cy="16" rx="22" ry="18" fill="#d4a843" opacity="0.04"/>
  <ellipse cx="48" cy="50" rx="20" ry="16" fill="#d4a843" opacity="0.04"/>
    <!-- sole organico con raggi morbidi -->
  <circle cx="32" cy="32" r="10" fill="#d4a843" opacity="0.3"/>
  <circle cx="32" cy="32" r="6" fill="#d4a843" opacity="0.6"/>
  <circle cx="32" cy="32" r="3" fill="#e8c96a"/>
  <path d="M32 12 Q33 18 32 22 Q31 18 32 12Z" fill="#d4a843"/>
  <path d="M32 42 Q31 46 32 52 Q33 46 32 42Z" fill="#d4a843"/>
  <path d="M12 32 Q18 31 22 32 Q18 33 12 32Z" fill="#d4a843"/>
  <path d="M42 32 Q46 33 52 32 Q46 31 42 32Z" fill="#d4a843"/>
  <path d="M17 17 Q21 20 22 23 Q19 20 17 17Z" fill="#d4a843"/>
  <path d="M42 41 Q44 44 47 47 Q44 43 42 41Z" fill="#d4a843"/>
  <path d="M47 17 Q44 20 42 23 Q44 20 47 17Z" fill="#d4a843"/>
  <path d="M22 41 Q20 44 17 47 Q19 43 22 41Z" fill="#d4a843"/>
</svg>
