<svg xmlns="http://www.w3.org/2000/svg" viewBox="0 0 64 64" width="64" height="64">
  <defs>
    <radialGradient id="bg" cx="40%" cy="35%" r="70%">
      <stop offset="0%" stop-color="#161408" stop-opacity="1"/>
      <stop offset="100%" stop-color="#080e09" stop-opacity="1"/>
    </radialGradient>
    <filter id="soft">
      <feGaussianBlur stdDeviation="0.8" result="b"/>
      <feMerge><feMergeNode in="b"/><feMergeNode in="SourceGraphic"/></feMerge>
    </filter>
    <filter id="softer">
      <feGaussianBlur stdDeviation="1.4" result="b"/>
      <feMerge><feMergeNode in="b"/><feMergeNode in="SourceGraphic"/></feMerge>
    </filter>
  </defs>
  <!-- bg -->
  <rect width="64" height="64" rx="10" fill="url(#bg)"/>
  <!-- texture organica leggera -->
  <ellipse cx="18" cy="16" rx="22" ry="18" fill="#d4a843" opacity="0.04"/>
  <ellipse cx="48" cy="50" rx="20" ry="16" fill="#d4a843" opacity="0.04"/>
    <!-- luna e alba -->
  <path d="M18 42 Q16 32 20 24 Q24 16 32 14 Q28 20 28 28 Q28 36 32 42 Q26 46 18 42Z"
        fill="#d4a843" opacity="0.25"/>
  <path d="M18 42 Q16 32 20 24 Q24 16 32 14 Q28 20 28 28 Q28 36 32 42 Q26 46 18 42Z"
        fill="none" stroke="#d4a843" stroke-width="1.5"/>
  <path d="M28 44 Q34 46 40 44 Q46 40 48 34 Q46 28 40 26 Q44 32 42 38 Q38 44 28 44Z"
        fill="none" stroke="#e8c96a" stroke-width="1.2"/>
  <path d="M24 52 L40 52" stroke="#d4a843" stroke-width="1.5" stroke-linecap="round"/>
  <path d="M20 48 L44 48" stroke="#d4a843" stroke-width="0.8" stroke-linecap="round" opacity="0.4"/>
</svg>
