<svg xmlns="http://www.w3.org/2000/svg" viewBox="0 0 64 64" width="64" height="64">
  <defs>
    <radialGradient id="bg" cx="40%" cy="35%" r="70%">
      <stop offset="0%" stop-color="#0d1e12" stop-opacity="1"/>
      <stop offset="100%" stop-color="#080e09" stop-opacity="1"/>
    </radialGradient>
    <filter id="soft">
      <feGaussianBlur stdDeviation="0.8" result="b"/>
      <feMerge><feMergeNode in="b"/><feMergeNode in="SourceGraphic"/></feMerge>
    </filter>
    <filter id="softer">
      <feGaussianBlur stdDeviation="1.4" result="b"/>
      <feMerge><feMergeNode in="b"/><feMergeNode in="SourceGraphic"/></feMerge>
    </filter>
  </defs>
  <!-- bg -->
  <rect width="64" height="64" rx="10" fill="url(#bg)"/>
  <!-- texture organica leggera -->
  <ellipse cx="18" cy="16" rx="22" ry="18" fill="#5cb88a" opacity="0.04"/>
  <ellipse cx="48" cy="50" rx="20" ry="16" fill="#5cb88a" opacity="0.04"/>
    <path d="M26 12 L22 30 L18 46 Q18 56 32 56 Q46 56 46 46 L42 30 L38 12Z"
        fill="none" stroke="#5cb88a" stroke-width="1.8" stroke-linejoin="round"/>
  <line x1="24" y1="12" x2="40" y2="12" stroke="#d4a843" stroke-width="2" stroke-linecap="round"/>
  <path d="M22 40 Q24 34 28 38 Q32 34 36 38 Q40 34 42 40 Q42 50 32 52 Q22 50 22 40Z"
        fill="#5cb88a" opacity="0.3"/>
  <path d="M22 40 Q24 34 28 38 Q32 34 36 38 Q40 34 42 40" fill="none" stroke="#8fd5b0" stroke-width="1"/>
</svg>
