<svg xmlns="http://www.w3.org/2000/svg" viewBox="0 0 64 64" width="64" height="64">
  <defs>
    <radialGradient id="bg" cx="40%" cy="35%" r="70%">
      <stop offset="0%" stop-color="#0d1e12" stop-opacity="1"/>
      <stop offset="100%" stop-color="#080e09" stop-opacity="1"/>
    </radialGradient>
    <filter id="soft">
      <feGaussianBlur stdDeviation="0.8" result="b"/>
      <feMerge><feMergeNode in="b"/><feMergeNode in="SourceGraphic"/></feMerge>
    </filter>
    <filter id="softer">
      <feGaussianBlur stdDeviation="1.4" result="b"/>
      <feMerge><feMergeNode in="b"/><feMergeNode in="SourceGraphic"/></feMerge>
    </filter>
  </defs>
  <!-- bg -->
  <rect width="64" height="64" rx="10" fill="url(#bg)"/>
  <!-- texture organica leggera -->
  <ellipse cx="18" cy="16" rx="22" ry="18" fill="#5cb88a" opacity="0.04"/>
  <ellipse cx="48" cy="50" rx="20" ry="16" fill="#5cb88a" opacity="0.04"/>
    <!-- cerchio alchemico con rune natura -->
  <circle cx="32" cy="32" r="18" fill="none" stroke="#5cb88a" stroke-width="1.5"/>
  <circle cx="32" cy="32" r="12" fill="none" stroke="#8fd5b0" stroke-width="1" opacity="0.6"/>
  <path d="M32 14 L35 28 L32 26 L29 28Z" fill="#d4a843"/>
  <path d="M50 32 L36 29 L38 32 L36 35Z" fill="#5cb88a" opacity="0.7"/>
  <path d="M14 32 L28 35 L26 32 L28 29Z" fill="#5cb88a" opacity="0.7"/>
  <path d="M32 50 L29 36 L32 38 L35 36Z" fill="#5cb88a" opacity="0.7"/>
  <circle cx="32" cy="32" r="4" fill="none" stroke="#d4a843" stroke-width="1.2"/>
  <circle cx="32" cy="32" r="1.5" fill="#d4a843"/>
</svg>
