<svg xmlns="http://www.w3.org/2000/svg" viewBox="0 0 64 64" width="64" height="64">
  <defs>
    <radialGradient id="bg" cx="40%" cy="35%" r="70%">
      <stop offset="0%" stop-color="#0d1e12" stop-opacity="1"/>
      <stop offset="100%" stop-color="#080e09" stop-opacity="1"/>
    </radialGradient>
    <filter id="soft">
      <feGaussianBlur stdDeviation="0.8" result="b"/>
      <feMerge><feMergeNode in="b"/><feMergeNode in="SourceGraphic"/></feMerge>
    </filter>
    <filter id="softer">
      <feGaussianBlur stdDeviation="1.4" result="b"/>
      <feMerge><feMergeNode in="b"/><feMergeNode in="SourceGraphic"/></feMerge>
    </filter>
  </defs>
  <!-- bg -->
  <rect width="64" height="64" rx="10" fill="url(#bg)"/>
  <!-- texture organica leggera -->
  <ellipse cx="18" cy="16" rx="22" ry="18" fill="#5cb88a" opacity="0.04"/>
  <ellipse cx="48" cy="50" rx="20" ry="16" fill="#5cb88a" opacity="0.04"/>
    <!-- erba medicinale stilizzata -->
  <path d="M28 52 Q26 40 28 28 Q32 18 36 28 Q38 40 36 52" fill="#5cb88a" opacity="0.3"/>
  <path d="M28 52 Q26 40 28 28 Q32 18 36 28 Q38 40 36 52" fill="none" stroke="#5cb88a" stroke-width="1.5" stroke-linejoin="round"/>
  <path d="M28 38 Q20 34 16 24 Q24 22 28 32" fill="#5cb88a" opacity="0.4"/>
  <path d="M36 38 Q44 34 48 24 Q40 22 36 32" fill="#5cb88a" opacity="0.4"/>
  <path d="M28 28 Q22 24 20 16 Q27 16 29 24" fill="#8fd5b0" opacity="0.35"/>
  <path d="M36 28 Q42 24 44 16 Q37 16 35 24" fill="#8fd5b0" opacity="0.35"/>
  <circle cx="32" cy="16" r="2" fill="#8fd5b0"/>
</svg>
