<svg xmlns="http://www.w3.org/2000/svg" viewBox="0 0 64 64" width="64" height="64">
  <defs>
    <radialGradient id="bg" cx="40%" cy="35%" r="70%">
      <stop offset="0%" stop-color="#0d1e12" stop-opacity="1"/>
      <stop offset="100%" stop-color="#080e09" stop-opacity="1"/>
    </radialGradient>
    <filter id="soft">
      <feGaussianBlur stdDeviation="0.8" result="b"/>
      <feMerge><feMergeNode in="b"/><feMergeNode in="SourceGraphic"/></feMerge>
    </filter>
    <filter id="softer">
      <feGaussianBlur stdDeviation="1.4" result="b"/>
      <feMerge><feMergeNode in="b"/><feMergeNode in="SourceGraphic"/></feMerge>
    </filter>
  </defs>
  <!-- bg -->
  <rect width="64" height="64" rx="10" fill="url(#bg)"/>
  <!-- texture organica leggera -->
  <ellipse cx="18" cy="16" rx="22" ry="18" fill="#5cb88a" opacity="0.04"/>
  <ellipse cx="48" cy="50" rx="20" ry="16" fill="#5cb88a" opacity="0.04"/>
    <path d="M20 12 Q22 22 18 32 Q14 42 20 52" stroke="#5cb88a" stroke-width="2.2" fill="none" stroke-linecap="round"/>
  <path d="M28 16 Q30 26 26 36 Q22 46 28 54" stroke="#5cb88a" stroke-width="1.7" fill="none" stroke-linecap="round" opacity="0.7"/>
  <path d="M36 14 Q38 24 36 34 Q34 44 38 52" stroke="#8fd5b0" stroke-width="1.3" fill="none" stroke-linecap="round" opacity="0.5"/>
  <ellipse cx="20" cy="11" rx="4" ry="3" fill="#5cb88a" opacity="0.5" transform="rotate(-20 20 11)"/>
  <ellipse cx="28" cy="15" rx="4" ry="2.5" fill="#5cb88a" opacity="0.4" transform="rotate(10 28 15)"/>
</svg>
