<svg xmlns="http://www.w3.org/2000/svg" viewBox="0 0 64 64" width="64" height="64">
  <defs>
    <radialGradient id="bg" cx="40%" cy="35%" r="70%">
      <stop offset="0%" stop-color="#080f18" stop-opacity="1"/>
      <stop offset="100%" stop-color="#080e09" stop-opacity="1"/>
    </radialGradient>
    <filter id="soft">
      <feGaussianBlur stdDeviation="0.8" result="b"/>
      <feMerge><feMergeNode in="b"/><feMergeNode in="SourceGraphic"/></feMerge>
    </filter>
    <filter id="softer">
      <feGaussianBlur stdDeviation="1.4" result="b"/>
      <feMerge><feMergeNode in="b"/><feMergeNode in="SourceGraphic"/></feMerge>
    </filter>
  </defs>
  <!-- bg -->
  <rect width="64" height="64" rx="10" fill="url(#bg)"/>
  <!-- texture organica leggera -->
  <ellipse cx="18" cy="16" rx="22" ry="18" fill="#ce93d8" opacity="0.04"/>
  <ellipse cx="48" cy="50" rx="20" ry="16" fill="#ce93d8" opacity="0.04"/>
    <path d="M32 32 Q38 20 46 22 Q54 26 50 36 Q46 46 36 48 Q24 48 18 40 Q12 30 16 22 Q20 14 30 14 Q38 14 44 20"
        fill="none" stroke="#ce93d8" stroke-width="1.5" stroke-linecap="round"/>
  <path d="M32 32 Q36 24 42 26 Q48 30 44 38 Q40 44 34 44"
        fill="none" stroke="#ce93d8" stroke-width="1" stroke-linecap="round" opacity="0.6"/>
  <circle cx="32" cy="32" r="3.5" fill="#ce93d8" opacity="0.6"/>
  <circle cx="32" cy="32" r="1.5" fill="#e1b5e8"/>
</svg>
