<svg xmlns="http://www.w3.org/2000/svg" viewBox="0 0 64 64" width="64" height="64">
  <defs>
    <radialGradient id="bg" cx="40%" cy="35%" r="70%">
      <stop offset="0%" stop-color="#161408" stop-opacity="1"/>
      <stop offset="100%" stop-color="#080e09" stop-opacity="1"/>
    </radialGradient>
    <filter id="soft">
      <feGaussianBlur stdDeviation="0.8" result="b"/>
      <feMerge><feMergeNode in="b"/><feMergeNode in="SourceGraphic"/></feMerge>
    </filter>
    <filter id="softer">
      <feGaussianBlur stdDeviation="1.4" result="b"/>
      <feMerge><feMergeNode in="b"/><feMergeNode in="SourceGraphic"/></feMerge>
    </filter>
  </defs>
  <!-- bg -->
  <rect width="64" height="64" rx="10" fill="url(#bg)"/>
  <!-- texture organica leggera -->
  <ellipse cx="18" cy="16" rx="22" ry="18" fill="#d4a843" opacity="0.04"/>
  <ellipse cx="48" cy="50" rx="20" ry="16" fill="#d4a843" opacity="0.04"/>
    <!-- piuma che cade -->
  <path d="M32 10 Q44 16 42 28 Q40 38 32 44 Q30 36 28 28 Q26 18 32 10Z"
        fill="none" stroke="#d4a843" stroke-width="1.5"/>
  <path d="M32 10 Q20 16 22 28 Q24 38 32 44 Q34 36 36 28 Q38 18 32 10Z"
        fill="#d4a843" opacity="0.15"/>
  <line x1="32" y1="10" x2="32" y2="44" stroke="#d4a843" stroke-width="0.8" opacity="0.6"/>
  <path d="M26 20 Q30 18 36 20" fill="none" stroke="#e8c96a" stroke-width="0.8" opacity="0.7"/>
  <path d="M24 28 Q28 26 36 28" fill="none" stroke="#e8c96a" stroke-width="0.8" opacity="0.6"/>
  <path d="M32 44 L30 54" stroke="#d4a843" stroke-width="1.2" stroke-linecap="round" opacity="0.5"/>
</svg>
