<svg xmlns="http://www.w3.org/2000/svg" viewBox="0 0 64 64" width="64" height="64">
  <defs>
    <radialGradient id="bg" cx="40%" cy="35%" r="70%">
      <stop offset="0%" stop-color="#180a04" stop-opacity="1"/>
      <stop offset="100%" stop-color="#080e09" stop-opacity="1"/>
    </radialGradient>
    <filter id="soft">
      <feGaussianBlur stdDeviation="0.8" result="b"/>
      <feMerge><feMergeNode in="b"/><feMergeNode in="SourceGraphic"/></feMerge>
    </filter>
    <filter id="softer">
      <feGaussianBlur stdDeviation="1.4" result="b"/>
      <feMerge><feMergeNode in="b"/><feMergeNode in="SourceGraphic"/></feMerge>
    </filter>
  </defs>
  <!-- bg -->
  <rect width="64" height="64" rx="10" fill="url(#bg)"/>
  <!-- texture organica leggera -->
  <ellipse cx="18" cy="16" rx="22" ry="18" fill="#e07070" opacity="0.04"/>
  <ellipse cx="48" cy="50" rx="20" ry="16" fill="#e07070" opacity="0.04"/>
    <path d="M26 54 Q18 42 22 30 Q24 20 18 10 Q28 18 28 30 Q32 20 36 10 Q38 24 44 30 Q48 42 40 54Z"
        fill="#e07070" opacity="0.5" stroke="#e07070" stroke-width="1"/>
  <path d="M28 50 Q24 42 26 34 Q28 28 32 26 Q36 28 38 34 Q40 42 36 50Z"
        fill="#e8c96a" opacity="0.4"/>
  <circle cx="32" cy="26" r="3" fill="#e8c96a" opacity="0.7"/>
</svg>
