<svg xmlns="http://www.w3.org/2000/svg" viewBox="0 0 64 64" width="64" height="64">
  <defs>
    <radialGradient id="bg" cx="40%" cy="35%" r="70%">
      <stop offset="0%" stop-color="#110d1a" stop-opacity="1"/>
      <stop offset="100%" stop-color="#080e09" stop-opacity="1"/>
    </radialGradient>
    <filter id="soft">
      <feGaussianBlur stdDeviation="0.8" result="b"/>
      <feMerge><feMergeNode in="b"/><feMergeNode in="SourceGraphic"/></feMerge>
    </filter>
    <filter id="softer">
      <feGaussianBlur stdDeviation="1.4" result="b"/>
      <feMerge><feMergeNode in="b"/><feMergeNode in="SourceGraphic"/></feMerge>
    </filter>
  </defs>
  <!-- bg -->
  <rect width="64" height="64" rx="10" fill="url(#bg)"/>
  <!-- texture organica leggera -->
  <ellipse cx="18" cy="16" rx="22" ry="18" fill="#ce93d8" opacity="0.04"/>
  <ellipse cx="48" cy="50" rx="20" ry="16" fill="#ce93d8" opacity="0.04"/>
    <path d="M32 10 Q36 20 42 26 Q50 32 42 38 Q36 44 32 54 Q28 44 22 38 Q14 32 22 26 Q28 20 32 10Z"
        fill="none" stroke="#ce93d8" stroke-width="1.5"/>
  <path d="M32 18 Q34 24 38 28 Q44 32 38 36 Q34 40 32 46 Q30 40 26 36 Q20 32 26 28 Q30 24 32 18Z"
        fill="#ce93d8" opacity="0.15"/>
  <circle cx="32" cy="32" r="5" fill="#ce93d8" opacity="0.4"/>
  <circle cx="32" cy="32" r="2" fill="#e1b5e8" opacity="0.7"/>
</svg>
