<svg xmlns="http://www.w3.org/2000/svg" viewBox="0 0 64 64" width="64" height="64">
  <defs>
    <radialGradient id="bg" cx="40%" cy="35%" r="70%">
      <stop offset="0%" stop-color="#110d1a" stop-opacity="1"/>
      <stop offset="100%" stop-color="#080e09" stop-opacity="1"/>
    </radialGradient>
    <filter id="soft">
      <feGaussianBlur stdDeviation="0.8" result="b"/>
      <feMerge><feMergeNode in="b"/><feMergeNode in="SourceGraphic"/></feMerge>
    </filter>
    <filter id="softer">
      <feGaussianBlur stdDeviation="1.4" result="b"/>
      <feMerge><feMergeNode in="b"/><feMergeNode in="SourceGraphic"/></feMerge>
    </filter>
  </defs>
  <!-- bg -->
  <rect width="64" height="64" rx="10" fill="url(#bg)"/>
  <!-- texture organica leggera -->
  <ellipse cx="18" cy="16" rx="22" ry="18" fill="#ce93d8" opacity="0.04"/>
  <ellipse cx="48" cy="50" rx="20" ry="16" fill="#ce93d8" opacity="0.04"/>
    <line x1="32" y1="10" x2="32" y2="54" stroke="#ce93d8" stroke-width="1.5" stroke-linecap="round"/>
  <line x1="14" y1="24" x2="50" y2="24" stroke="#ce93d8" stroke-width="1.5" stroke-linecap="round"/>
  <path d="M14 24 Q12 32 16 38 Q20 44 24 40 Q28 36 14 24Z" fill="#ce93d8" opacity="0.25"/>
  <path d="M14 24 Q12 32 16 38 Q20 44 24 40 Q28 36 14 24Z" fill="none" stroke="#e1b5e8" stroke-width="1"/>
  <path d="M50 24 Q52 32 48 38 Q44 44 40 40 Q36 36 50 24Z" fill="#ce93d8" opacity="0.25"/>
  <path d="M50 24 Q52 32 48 38 Q44 44 40 40 Q36 36 50 24Z" fill="none" stroke="#e1b5e8" stroke-width="1"/>
  <line x1="26" y1="54" x2="38" y2="54" stroke="#ce93d8" stroke-width="2" stroke-linecap="round"/>
  <circle cx="32" cy="10" r="2.5" fill="#e1b5e8"/>
</svg>
