<svg xmlns="http://www.w3.org/2000/svg" viewBox="0 0 64 64" width="64" height="64">
  <defs>
    <radialGradient id="bg" cx="40%" cy="35%" r="70%">
      <stop offset="0%" stop-color="#0d1e12" stop-opacity="1"/>
      <stop offset="100%" stop-color="#080e09" stop-opacity="1"/>
    </radialGradient>
    <filter id="soft">
      <feGaussianBlur stdDeviation="0.8" result="b"/>
      <feMerge><feMergeNode in="b"/><feMergeNode in="SourceGraphic"/></feMerge>
    </filter>
    <filter id="softer">
      <feGaussianBlur stdDeviation="1.4" result="b"/>
      <feMerge><feMergeNode in="b"/><feMergeNode in="SourceGraphic"/></feMerge>
    </filter>
  </defs>
  <!-- bg -->
  <rect width="64" height="64" rx="10" fill="url(#bg)"/>
  <!-- texture organica leggera -->
  <ellipse cx="18" cy="16" rx="22" ry="18" fill="#5cb88a" opacity="0.04"/>
  <ellipse cx="48" cy="50" rx="20" ry="16" fill="#5cb88a" opacity="0.04"/>
    <!-- foglia a spine -->
  <path d="M32 10 C20 16 14 26 16 38 C18 50 28 54 32 55 C36 54 46 50 48 38 C50 26 44 16 32 10Z"
        fill="none" stroke="#5cb88a" stroke-width="1.8" stroke-linejoin="round"/>
  <line x1="32" y1="10" x2="32" y2="55" stroke="#5cb88a" stroke-width="1" opacity="0.5"/>
  <path d="M22 28 Q32 22 42 28" fill="none" stroke="#5cb88a" stroke-width="1.2" opacity="0.6"/>
  <path d="M19 36 Q32 30 45 36" fill="none" stroke="#5cb88a" stroke-width="1.2" opacity="0.6"/>
  <path d="M20 44 Q32 38 44 44" fill="none" stroke="#5cb88a" stroke-width="1" opacity="0.5"/>
  <line x1="26" y1="19" x2="22" y2="14" stroke="#8fd5b0" stroke-width="1.2"/>
  <line x1="38" y1="19" x2="42" y2="14" stroke="#8fd5b0" stroke-width="1.2"/>
  <line x1="18" y1="32" x2="12" y2="28" stroke="#8fd5b0" stroke-width="1.2"/>
  <line x1="46" y1="32" x2="52" y2="28" stroke="#8fd5b0" stroke-width="1.2"/>
  <circle cx="32" cy="10" r="2" fill="#8fd5b0"/>
</svg>
