<svg xmlns="http://www.w3.org/2000/svg" viewBox="0 0 64 64" width="64" height="64">
  <defs>
    <radialGradient id="bg" cx="40%" cy="35%" r="70%">
      <stop offset="0%" stop-color="#180a04" stop-opacity="1"/>
      <stop offset="100%" stop-color="#080e09" stop-opacity="1"/>
    </radialGradient>
    <filter id="soft">
      <feGaussianBlur stdDeviation="0.8" result="b"/>
      <feMerge><feMergeNode in="b"/><feMergeNode in="SourceGraphic"/></feMerge>
    </filter>
    <filter id="softer">
      <feGaussianBlur stdDeviation="1.4" result="b"/>
      <feMerge><feMergeNode in="b"/><feMergeNode in="SourceGraphic"/></feMerge>
    </filter>
  </defs>
  <!-- bg -->
  <rect width="64" height="64" rx="10" fill="url(#bg)"/>
  <!-- texture organica leggera -->
  <ellipse cx="18" cy="16" rx="22" ry="18" fill="#e07070" opacity="0.04"/>
  <ellipse cx="48" cy="50" rx="20" ry="16" fill="#e07070" opacity="0.04"/>
    <path d="M32 10 L34 27 L50 22 L38 32 L50 42 L34 37 L32 54 L30 37 L14 42 L26 32 L14 22 L30 27Z"
        fill="none" stroke="#e8c96a" stroke-width="1.5" stroke-linejoin="round"/>
  <path d="M32 18 L33 26 L40 24 L36 30 L40 37 L33 35 L32 42 L31 35 L24 37 L28 30 L24 24 L31 26Z"
        fill="#e8c96a" opacity="0.35"/>
  <circle cx="32" cy="32" r="3" fill="#e8c96a" opacity="0.8"/>
</svg>
